<mxfile host="65bd71144e">
    <diagram id="afhy61-JGGwbrwMMAsw_" name="ページ1">
        <mxGraphModel dx="1009" dy="626" grid="1" gridSize="10" guides="1" tooltips="1" connect="1" arrows="1" fold="1" page="1" pageScale="1" pageWidth="827" pageHeight="1169" math="0" shadow="0">
            <root>
                <mxCell id="0"/>
                <mxCell id="1" parent="0"/>
                <mxCell id="2" value="presentation" style="shape=folder;fontStyle=1;spacingTop=10;tabWidth=40;tabHeight=14;tabPosition=left;html=1;verticalAlign=top;fillColor=none;" parent="1" vertex="1">
                    <mxGeometry x="80" y="80" width="280" height="360" as="geometry"/>
                </mxCell>
                <mxCell id="3" value="application" style="shape=folder;fontStyle=1;spacingTop=10;tabWidth=40;tabHeight=14;tabPosition=left;html=1;verticalAlign=top;fillColor=none;" parent="1" vertex="1">
                    <mxGeometry x="400" y="80" width="280" height="360" as="geometry"/>
                </mxCell>
                <mxCell id="4" value="infrastructure" style="shape=folder;fontStyle=1;spacingTop=10;tabWidth=40;tabHeight=14;tabPosition=left;html=1;verticalAlign=top;fillColor=none;" parent="1" vertex="1">
                    <mxGeometry x="720" y="80" width="280" height="360" as="geometry"/>
                </mxCell>
                <mxCell id="5" value="Router" style="html=1;" parent="1" vertex="1">
                    <mxGeometry x="200" y="240" width="110" height="50" as="geometry"/>
                </mxCell>
                <mxCell id="6" value="Request" style="html=1;" parent="1" vertex="1">
                    <mxGeometry x="120" y="160" width="110" height="50" as="geometry"/>
                </mxCell>
                <mxCell id="7" value="Response" style="html=1;" parent="1" vertex="1">
                    <mxGeometry x="120" y="320" width="110" height="50" as="geometry"/>
                </mxCell>
                <mxCell id="8" value="Service" style="html=1;" parent="1" vertex="1">
                    <mxGeometry x="520" y="240" width="110" height="50" as="geometry"/>
                </mxCell>
                <mxCell id="9" value="Output" style="html=1;" parent="1" vertex="1">
                    <mxGeometry x="440" y="320" width="110" height="50" as="geometry"/>
                </mxCell>
                <mxCell id="10" value="Gateway" style="html=1;" parent="1" vertex="1">
                    <mxGeometry x="840" y="240" width="110" height="50" as="geometry"/>
                </mxCell>
                <mxCell id="11" value="Record" style="html=1;" parent="1" vertex="1">
                    <mxGeometry x="760" y="320" width="110" height="50" as="geometry"/>
                </mxCell>
                <mxCell id="12" value="" style="endArrow=open;endFill=1;endSize=12;html=1;" parent="1" source="5" target="6" edge="1">
                    <mxGeometry width="160" relative="1" as="geometry">
                        <mxPoint x="420" y="340" as="sourcePoint"/>
                        <mxPoint x="580" y="340" as="targetPoint"/>
                    </mxGeometry>
                </mxCell>
                <mxCell id="13" value="" style="endArrow=open;endFill=1;endSize=12;html=1;" parent="1" source="5" target="7" edge="1">
                    <mxGeometry width="160" relative="1" as="geometry">
                        <mxPoint x="225.55555555555543" y="260" as="sourcePoint"/>
                        <mxPoint x="194.44444444444434" y="220" as="targetPoint"/>
                    </mxGeometry>
                </mxCell>
                <mxCell id="14" value="" style="endArrow=open;endFill=1;endSize=12;html=1;" parent="1" source="5" target="8" edge="1">
                    <mxGeometry width="160" relative="1" as="geometry">
                        <mxPoint x="226.81818181818176" y="310" as="sourcePoint"/>
                        <mxPoint x="183.18181818181824" y="370" as="targetPoint"/>
                    </mxGeometry>
                </mxCell>
                <mxCell id="15" value="" style="endArrow=open;endFill=1;endSize=12;html=1;" parent="1" source="5" target="9" edge="1">
                    <mxGeometry width="160" relative="1" as="geometry">
                        <mxPoint x="300" y="283.38235294117635" as="sourcePoint"/>
                        <mxPoint x="530" y="276.6176470588234" as="targetPoint"/>
                    </mxGeometry>
                </mxCell>
                <mxCell id="16" value="" style="endArrow=open;endFill=1;endSize=12;html=1;" parent="1" source="8" target="9" edge="1">
                    <mxGeometry width="160" relative="1" as="geometry">
                        <mxPoint x="300" y="307.91666666666674" as="sourcePoint"/>
                        <mxPoint x="430" y="362.08333333333326" as="targetPoint"/>
                    </mxGeometry>
                </mxCell>
                <mxCell id="17" value="" style="endArrow=open;endFill=1;endSize=12;html=1;" parent="1" source="8" target="11" edge="1">
                    <mxGeometry width="160" relative="1" as="geometry">
                        <mxPoint x="562.2727272727273" y="300" as="sourcePoint"/>
                        <mxPoint x="507.72727272727275" y="360" as="targetPoint"/>
                    </mxGeometry>
                </mxCell>
                <mxCell id="18" value="" style="endArrow=open;endFill=1;endSize=12;html=1;" parent="1" source="8" target="10" edge="1">
                    <mxGeometry width="160" relative="1" as="geometry">
                        <mxPoint x="640" y="297.4074074074074" as="sourcePoint"/>
                        <mxPoint x="800" y="362.5925925925926" as="targetPoint"/>
                    </mxGeometry>
                </mxCell>
                <mxCell id="19" value="" style="endArrow=open;endFill=1;endSize=12;html=1;" parent="1" source="10" target="11" edge="1">
                    <mxGeometry width="160" relative="1" as="geometry">
                        <mxPoint x="640" y="275" as="sourcePoint"/>
                        <mxPoint x="900" y="275" as="targetPoint"/>
                    </mxGeometry>
                </mxCell>
                <mxCell id="20" value="presentation" style="shape=folder;fontStyle=1;spacingTop=10;tabWidth=40;tabHeight=14;tabPosition=left;html=1;verticalAlign=top;fillColor=none;" parent="1" vertex="1">
                    <mxGeometry x="80" y="460" width="280" height="360" as="geometry"/>
                </mxCell>
                <mxCell id="21" value="application" style="shape=folder;fontStyle=1;spacingTop=10;tabWidth=40;tabHeight=14;tabPosition=left;html=1;verticalAlign=top;fillColor=none;" parent="1" vertex="1">
                    <mxGeometry x="400" y="460" width="280" height="360" as="geometry"/>
                </mxCell>
                <mxCell id="22" value="infrastructure" style="shape=folder;fontStyle=1;spacingTop=10;tabWidth=40;tabHeight=14;tabPosition=left;html=1;verticalAlign=top;fillColor=none;" parent="1" vertex="1">
                    <mxGeometry x="1040" y="460" width="280" height="360" as="geometry"/>
                </mxCell>
                <mxCell id="23" value="Router" style="html=1;" parent="1" vertex="1">
                    <mxGeometry x="220" y="600" width="110" height="50" as="geometry"/>
                </mxCell>
                <mxCell id="24" value="Request" style="html=1;" parent="1" vertex="1">
                    <mxGeometry x="140" y="520" width="110" height="50" as="geometry"/>
                </mxCell>
                <mxCell id="25" value="Response" style="html=1;" parent="1" vertex="1">
                    <mxGeometry x="140" y="680" width="110" height="50" as="geometry"/>
                </mxCell>
                <mxCell id="43" style="edgeStyle=none;html=1;exitX=1;exitY=0;exitDx=0;exitDy=0;entryX=0;entryY=0.5;entryDx=0;entryDy=0;" parent="1" source="26" target="42" edge="1">
                    <mxGeometry relative="1" as="geometry"/>
                </mxCell>
                <mxCell id="26" value="Service" style="html=1;" parent="1" vertex="1">
                    <mxGeometry x="540" y="600" width="110" height="50" as="geometry"/>
                </mxCell>
                <mxCell id="27" value="Output" style="html=1;" parent="1" vertex="1">
                    <mxGeometry x="460" y="680" width="110" height="50" as="geometry"/>
                </mxCell>
                <mxCell id="28" value="Gateway" style="html=1;" parent="1" vertex="1">
                    <mxGeometry x="1180" y="600" width="110" height="50" as="geometry"/>
                </mxCell>
                <mxCell id="29" value="Record" style="html=1;" parent="1" vertex="1">
                    <mxGeometry x="1100" y="680" width="110" height="50" as="geometry"/>
                </mxCell>
                <mxCell id="30" value="" style="endArrow=open;endFill=1;endSize=12;html=1;" parent="1" source="23" target="24" edge="1">
                    <mxGeometry width="160" relative="1" as="geometry">
                        <mxPoint x="440" y="700" as="sourcePoint"/>
                        <mxPoint x="600" y="700" as="targetPoint"/>
                    </mxGeometry>
                </mxCell>
                <mxCell id="31" value="" style="endArrow=open;endFill=1;endSize=12;html=1;" parent="1" source="23" target="25" edge="1">
                    <mxGeometry width="160" relative="1" as="geometry">
                        <mxPoint x="245.55555555555543" y="620" as="sourcePoint"/>
                        <mxPoint x="214.44444444444434" y="580" as="targetPoint"/>
                    </mxGeometry>
                </mxCell>
                <mxCell id="32" value="" style="endArrow=open;endFill=1;endSize=12;html=1;" parent="1" source="23" target="26" edge="1">
                    <mxGeometry width="160" relative="1" as="geometry">
                        <mxPoint x="246.81818181818176" y="670" as="sourcePoint"/>
                        <mxPoint x="203.18181818181824" y="730" as="targetPoint"/>
                    </mxGeometry>
                </mxCell>
                <mxCell id="33" value="" style="endArrow=open;endFill=1;endSize=12;html=1;" parent="1" source="23" target="27" edge="1">
                    <mxGeometry width="160" relative="1" as="geometry">
                        <mxPoint x="320" y="643.3823529411764" as="sourcePoint"/>
                        <mxPoint x="550" y="636.6176470588234" as="targetPoint"/>
                    </mxGeometry>
                </mxCell>
                <mxCell id="34" value="" style="endArrow=open;endFill=1;endSize=12;html=1;" parent="1" source="26" target="27" edge="1">
                    <mxGeometry width="160" relative="1" as="geometry">
                        <mxPoint x="320" y="667.9166666666667" as="sourcePoint"/>
                        <mxPoint x="450" y="722.0833333333333" as="targetPoint"/>
                    </mxGeometry>
                </mxCell>
                <mxCell id="35" value="" style="endArrow=open;endFill=1;endSize=12;html=1;" parent="1" source="26" target="29" edge="1">
                    <mxGeometry width="160" relative="1" as="geometry">
                        <mxPoint x="582.2727272727273" y="660" as="sourcePoint"/>
                        <mxPoint x="527.7272727272727" y="720" as="targetPoint"/>
                    </mxGeometry>
                </mxCell>
                <mxCell id="36" value="" style="endArrow=open;endFill=1;endSize=12;html=1;" parent="1" source="26" target="28" edge="1">
                    <mxGeometry width="160" relative="1" as="geometry">
                        <mxPoint x="660" y="657.4074074074074" as="sourcePoint"/>
                        <mxPoint x="820" y="722.5925925925926" as="targetPoint"/>
                    </mxGeometry>
                </mxCell>
                <mxCell id="37" value="" style="endArrow=open;endFill=1;endSize=12;html=1;" parent="1" source="28" target="29" edge="1">
                    <mxGeometry width="160" relative="1" as="geometry">
                        <mxPoint x="980" y="635" as="sourcePoint"/>
                        <mxPoint x="1240" y="635" as="targetPoint"/>
                    </mxGeometry>
                </mxCell>
                <mxCell id="41" value="domain" style="shape=folder;fontStyle=1;spacingTop=10;tabWidth=40;tabHeight=14;tabPosition=left;html=1;verticalAlign=top;fillColor=none;" parent="1" vertex="1">
                    <mxGeometry x="720" y="460" width="280" height="360" as="geometry"/>
                </mxCell>
                <mxCell id="42" value="Model" style="html=1;" parent="1" vertex="1">
                    <mxGeometry x="805" y="510" width="110" height="50" as="geometry"/>
                </mxCell>
                <mxCell id="44" value="presentation" style="shape=folder;fontStyle=1;spacingTop=10;tabWidth=40;tabHeight=14;tabPosition=left;html=1;verticalAlign=top;fillColor=none;" parent="1" vertex="1">
                    <mxGeometry x="80" y="870" width="280" height="360" as="geometry"/>
                </mxCell>
                <mxCell id="45" value="application" style="shape=folder;fontStyle=1;spacingTop=10;tabWidth=40;tabHeight=14;tabPosition=left;html=1;verticalAlign=top;fillColor=none;" parent="1" vertex="1">
                    <mxGeometry x="400" y="870" width="280" height="360" as="geometry"/>
                </mxCell>
                <mxCell id="46" value="infrastructure" style="shape=folder;fontStyle=1;spacingTop=10;tabWidth=40;tabHeight=14;tabPosition=left;html=1;verticalAlign=top;fillColor=none;" parent="1" vertex="1">
                    <mxGeometry x="1040" y="870" width="280" height="360" as="geometry"/>
                </mxCell>
                <mxCell id="47" value="Router" style="html=1;" parent="1" vertex="1">
                    <mxGeometry x="220" y="1010" width="110" height="50" as="geometry"/>
                </mxCell>
                <mxCell id="48" value="Request" style="html=1;" parent="1" vertex="1">
                    <mxGeometry x="140" y="930" width="110" height="50" as="geometry"/>
                </mxCell>
                <mxCell id="49" value="Response" style="html=1;" parent="1" vertex="1">
                    <mxGeometry x="140" y="1090" width="110" height="50" as="geometry"/>
                </mxCell>
                <mxCell id="64" style="edgeStyle=none;html=1;exitX=1;exitY=0.5;exitDx=0;exitDy=0;entryX=0;entryY=0.5;entryDx=0;entryDy=0;" edge="1" parent="1" source="50" target="62">
                    <mxGeometry relative="1" as="geometry"/>
                </mxCell>
                <mxCell id="66" style="edgeStyle=none;html=1;exitX=1;exitY=0.25;exitDx=0;exitDy=0;entryX=0;entryY=0.75;entryDx=0;entryDy=0;" edge="1" parent="1" source="50" target="61">
                    <mxGeometry relative="1" as="geometry"/>
                </mxCell>
                <mxCell id="50" value="Service" style="html=1;" parent="1" vertex="1">
                    <mxGeometry x="540" y="1010" width="110" height="50" as="geometry"/>
                </mxCell>
                <mxCell id="51" value="Output" style="html=1;" parent="1" vertex="1">
                    <mxGeometry x="460" y="1090" width="110" height="50" as="geometry"/>
                </mxCell>
                <mxCell id="52" value="Gateway" style="html=1;" parent="1" vertex="1">
                    <mxGeometry x="1180" y="1010" width="110" height="50" as="geometry"/>
                </mxCell>
                <mxCell id="53" value="Record" style="html=1;" parent="1" vertex="1">
                    <mxGeometry x="1100" y="1090" width="110" height="50" as="geometry"/>
                </mxCell>
                <mxCell id="54" value="" style="endArrow=open;endFill=1;endSize=12;html=1;" parent="1" source="47" target="49" edge="1">
                    <mxGeometry width="160" relative="1" as="geometry">
                        <mxPoint x="245.55555555555543" y="1030" as="sourcePoint"/>
                        <mxPoint x="214.44444444444434" y="990" as="targetPoint"/>
                    </mxGeometry>
                </mxCell>
                <mxCell id="55" value="" style="endArrow=open;endFill=1;endSize=12;html=1;" parent="1" source="47" target="50" edge="1">
                    <mxGeometry width="160" relative="1" as="geometry">
                        <mxPoint x="246.81818181818176" y="1080" as="sourcePoint"/>
                        <mxPoint x="203.18181818181824" y="1140" as="targetPoint"/>
                    </mxGeometry>
                </mxCell>
                <mxCell id="56" value="" style="endArrow=open;endFill=1;endSize=12;html=1;" parent="1" source="47" target="51" edge="1">
                    <mxGeometry width="160" relative="1" as="geometry">
                        <mxPoint x="320" y="1053.3823529411764" as="sourcePoint"/>
                        <mxPoint x="550" y="1046.6176470588234" as="targetPoint"/>
                    </mxGeometry>
                </mxCell>
                <mxCell id="57" value="" style="endArrow=open;endFill=1;endSize=12;html=1;" parent="1" source="50" target="51" edge="1">
                    <mxGeometry width="160" relative="1" as="geometry">
                        <mxPoint x="320" y="1077.9166666666667" as="sourcePoint"/>
                        <mxPoint x="450" y="1132.0833333333333" as="targetPoint"/>
                    </mxGeometry>
                </mxCell>
                <mxCell id="60" value="domain" style="shape=folder;fontStyle=1;spacingTop=10;tabWidth=40;tabHeight=14;tabPosition=left;html=1;verticalAlign=top;fillColor=none;" parent="1" vertex="1">
                    <mxGeometry x="720" y="870" width="280" height="360" as="geometry"/>
                </mxCell>
                <mxCell id="61" value="Model" style="html=1;" parent="1" vertex="1">
                    <mxGeometry x="805" y="920" width="110" height="50" as="geometry"/>
                </mxCell>
                <mxCell id="65" style="edgeStyle=none;html=1;exitX=0.5;exitY=0;exitDx=0;exitDy=0;entryX=0.5;entryY=1;entryDx=0;entryDy=0;" edge="1" parent="1" source="62" target="61">
                    <mxGeometry relative="1" as="geometry"/>
                </mxCell>
                <mxCell id="67" style="edgeStyle=none;html=1;exitX=1;exitY=0.5;exitDx=0;exitDy=0;entryX=0;entryY=0.5;entryDx=0;entryDy=0;" edge="1" parent="1" source="62" target="52">
                    <mxGeometry relative="1" as="geometry"/>
                </mxCell>
                <mxCell id="68" style="edgeStyle=none;html=1;exitX=1;exitY=0.75;exitDx=0;exitDy=0;entryX=0;entryY=0.5;entryDx=0;entryDy=0;" edge="1" parent="1" source="62" target="53">
                    <mxGeometry relative="1" as="geometry"/>
                </mxCell>
                <mxCell id="62" value="Repository" style="html=1;" vertex="1" parent="1">
                    <mxGeometry x="805" y="1010" width="110" height="50" as="geometry"/>
                </mxCell>
            </root>
        </mxGraphModel>
    </diagram>
</mxfile>